<?xml version="1.0" standalone="no"?>
<!DOCTYPE svg PUBLIC "-//W3C//DTD SVG 20010904//EN"
 "http://www.w3.org/TR/2001/REC-SVG-20010904/DTD/svg10.dtd">
<svg version="1.0" xmlns="http://www.w3.org/2000/svg"
 width="300.000000pt" height="300.000000pt" viewBox="0 0 300.000000 300.000000"
 preserveAspectRatio="xMidYMid meet">
<metadata>
Created by potrace 1.10, written by Peter Selinger 2001-2011
</metadata>
<g transform="translate(0.000000,300.000000) scale(0.100000,-0.100000)"
fill="#000000" stroke="none">
<path d="M1255 2374 c-167 -26 -329 -81 -419 -143 -70 -49 -79 -76 -135 -453
-28 -186 -52 -348 -53 -360 0 -13 5 -129 12 -258 12 -220 15 -242 47 -347 l34
-113 110 0 109 0 0 -45 0 -46 83 3 82 3 3 43 3 42 369 0 369 0 3 -42 3 -43 83
-3 82 -3 0 46 0 45 110 0 109 0 31 97 c28 89 33 120 47 353 19 285 23 229 -53
730 -22 144 -43 251 -55 276 -62 132 -391 235 -744 233 -77 -1 -180 -7 -230
-15z m575 -67 c154 -36 261 -80 316 -130 l47 -43 18 -114 c82 -509 91 -590 85
-740 -4 -80 -9 -170 -13 -200 l-5 -55 -778 0 -778 0 -6 56 c-3 31 -8 123 -12
205 -6 144 -4 159 45 484 28 184 58 349 67 366 35 70 208 145 422 184 156 29
442 22 592 -13z m448 -1347 c-3 -20 -8 -20 -778 -20 -770 0 -775 0 -778 20 -3
20 0 20 778 20 778 0 781 0 778 -20z m-1259 -107 c-70 -115 -54 -104 -151
-106 l-88 -2 -24 73 -25 72 156 0 155 0 -23 -37z m904 5 c8 -18 27 -51 40 -73
l25 -40 -488 0 -488 0 25 40 c13 22 32 55 40 73 l17 32 406 0 406 0 17 -32z
m321 -40 l-24 -73 -88 2 c-97 2 -81 -9 -151 106 l-23 37 155 0 156 0 -25 -72z
m-1164 -140 c0 -20 -5 -23 -35 -23 -30 0 -35 3 -35 23 0 19 5 22 35 22 30 0
35 -3 35 -22z m910 0 c0 -20 -5 -23 -35 -23 -30 0 -35 3 -35 23 0 19 5 22 35
22 30 0 35 -3 35 -22z"/>
<path d="M1295 2285 c-19 -18 -25 -35 -25 -65 0 -30 6 -47 25 -65 24 -25 26
-25 205 -25 179 0 181 0 205 25 19 18 25 35 25 65 0 30 -6 47 -25 65 -24 25
-26 25 -205 25 -179 0 -181 0 -205 -25z m380 -65 l0 -35 -175 0 -175 0 -3 23
c-8 52 -6 53 180 50 l173 -3 0 -35z"/>
<path d="M967 2202 c-34 -38 -8 -92 45 -92 27 0 58 27 58 51 0 51 -70 78 -103
41z m70 -28 c4 -11 -1 -22 -12 -31 -16 -11 -21 -11 -33 1 -8 8 -12 22 -9 30 8
21 46 21 54 0z"/>
<path d="M1946 2198 c-21 -29 -20 -51 2 -71 38 -35 102 -9 102 40 0 49 -76 72
-104 31z m69 -33 c0 -22 -31 -33 -47 -17 -17 17 -1 44 24 40 15 -2 23 -10 23
-23z"/>
<path d="M1323 2085 c-17 -7 -36 -22 -42 -34 -16 -28 -15 -515 1 -544 23 -44
35 -46 218 -46 183 0 195 2 218 46 16 29 17 516 1 545 -20 38 -69 48 -221 48
-99 -1 -153 -5 -175 -15z m341 -51 c14 -13 16 -51 16 -257 0 -133 -4 -248 -8
-254 -6 -9 -56 -14 -165 -17 -130 -4 -160 -2 -172 10 -13 13 -15 57 -15 264 0
227 2 250 18 259 9 6 83 11 164 11 120 0 149 -3 162 -16z"/>
<path d="M959 2071 c-91 -8 -124 -27 -139 -78 -13 -50 -63 -399 -62 -442 0
-23 9 -42 26 -60 l26 -26 171 0 171 0 29 33 30 33 -3 251 -3 250 -28 24 c-30
26 -59 28 -218 15z m189 -53 c9 -9 12 -76 12 -242 0 -199 -2 -232 -17 -248
-14 -16 -33 -18 -158 -18 -122 0 -146 3 -163 18 l-21 17 33 223 c18 123 38
228 45 235 22 22 250 34 269 15z"/>
<path d="M1820 2052 l-30 -30 0 -246 0 -246 29 -32 29 -33 165 0 c152 0 168 2
194 21 15 11 30 32 33 45 9 36 -56 467 -74 495 -20 30 -65 41 -203 50 l-112 7
-31 -31z m212 -30 c43 -4 82 -12 88 -18 6 -6 27 -112 45 -235 l34 -224 -20
-17 c-30 -25 -299 -27 -323 -2 -14 13 -16 50 -16 248 0 167 3 235 12 244 13
13 63 14 180 4z"/>
<path d="M780 1230 l0 -110 79 0 c59 0 84 4 95 16 20 20 21 68 1 84 -11 9 -13
16 -5 24 5 5 10 22 10 37 0 42 -32 59 -112 59 l-68 0 0 -110z m130 55 c18 -22
3 -35 -41 -35 -35 0 -39 3 -39 25 0 22 4 25 34 25 18 0 39 -7 46 -15z m10 -90
c19 -22 3 -35 -46 -35 -40 0 -44 2 -44 25 0 22 4 25 39 25 22 0 44 -6 51 -15z"/>
<path d="M1027 1229 c-25 -62 -45 -114 -44 -115 9 -9 56 12 60 27 7 28 103 28
112 0 5 -17 48 -34 58 -24 3 2 -17 52 -43 111 -40 89 -52 108 -72 110 -21 3
-28 -8 -71 -109z m91 9 c11 -27 11 -28 -19 -28 -26 0 -30 3 -24 18 4 9 10 25
12 35 6 21 14 14 31 -25z"/>
<path d="M1238 1230 c3 -109 4 -110 27 -110 22 0 24 4 22 36 -3 51 17 53 50 6
19 -28 37 -42 58 -45 17 -2 32 -3 34 -1 2 1 -11 20 -27 40 -30 37 -31 38 -12
51 32 23 41 47 29 82 -15 42 -35 51 -116 51 l-68 0 3 -110z m137 35 c0 -16 -9
-21 -43 -26 -48 -6 -52 -4 -52 26 0 30 4 32 52 26 34 -5 43 -10 43 -26z"/>
<path d="M1440 1314 c0 -24 3 -26 35 -22 l35 4 0 -87 c0 -85 1 -87 25 -91 l25
-5 0 91 0 92 35 -4 c32 -4 35 -2 35 22 l0 26 -95 0 -95 0 0 -26z"/>
<path d="M1655 1245 c-40 -39 -32 -96 17 -121 49 -25 115 -2 88 31 -9 11 -17
12 -30 5 -24 -13 -48 -3 -55 21 -10 31 13 52 51 44 36 -6 52 8 34 30 -20 24
-77 19 -105 -10z"/>
<path d="M1816 1249 c-43 -34 -35 -99 16 -125 81 -42 157 58 93 121 -30 31
-73 32 -109 4z m84 -34 c26 -32 -13 -81 -47 -59 -35 22 -23 74 17 74 10 0 23
-7 30 -15z"/>
<path d="M1980 1196 c0 -65 2 -74 20 -79 17 -4 19 1 22 52 3 49 6 56 26 59 21
3 22 0 22 -52 0 -53 1 -56 25 -56 24 0 25 3 25 56 0 52 1 55 23 52 19 -3 22
-10 25 -54 2 -42 7 -53 22 -57 18 -5 20 0 20 55 0 32 -5 68 -10 79 -12 22 -59
26 -78 7 -9 -9 -15 -9 -24 0 -15 15 -51 15 -66 0 -9 -9 -12 -9 -12 0 0 7 -9
12 -20 12 -18 0 -20 -7 -20 -74z"/>
</g>
</svg>
